<?xml version="1.0" standalone="no"?>
<!DOCTYPE svg PUBLIC "-//W3C//DTD SVG 20010904//EN"
 "http://www.w3.org/TR/2001/REC-SVG-20010904/DTD/svg10.dtd">
<svg version="1.0" xmlns="http://www.w3.org/2000/svg"
 width="976.000000pt" height="976.000000pt" viewBox="0 0 976.000000 976.000000"
 preserveAspectRatio="xMidYMid meet">

<g transform="translate(0.000000,976.000000) scale(0.100000,-0.100000)"
fill="#000000" stroke="none">
<path d="M4855 9397 c-80 -32 -118 -83 -136 -181 -21 -116 23 -217 111 -258
53 -24 56 -28 40 -59 -9 -16 -7 -19 8 -19 30 0 44 -23 28 -45 -11 -15 -18 -16
-44 -7 -37 13 -53 -1 -21 -19 74 -39 167 23 111 74 -10 10 -24 17 -30 17 -16
0 -15 30 1 35 6 2 29 6 50 10 48 8 100 54 121 106 9 23 16 43 14 44 -2 1 -28
5 -59 8 l-55 7 -17 -35 c-15 -32 -21 -35 -57 -35 -38 0 -42 3 -57 38 -20 48
-11 165 16 202 36 49 111 26 111 -35 0 -24 2 -25 64 -25 l64 0 -10 42 c-11 52
-48 102 -90 124 -40 21 -125 27 -163 11z"/>
<path d="M4495 9390 c-8 -13 1 -121 16 -189 5 -24 8 -45 6 -48 -2 -2 -45 48
-94 110 l-91 114 -53 -5 c-30 -2 -58 -8 -63 -12 -7 -7 31 -438 40 -449 7 -8
104 12 104 22 0 7 -7 68 -15 136 -8 69 -13 126 -12 127 1 1 35 -41 75 -94 131
-175 120 -165 181 -157 l52 7 -6 62 c-4 33 -14 133 -23 221 l-17 160 -47 3
c-27 2 -49 -2 -53 -8z"/>
<path d="M5395 9326 c-3 -11 -7 -34 -8 -50 -2 -27 2 -31 38 -39 22 -5 41 -11
43 -12 1 -1 -16 -78 -38 -170 -22 -93 -39 -169 -38 -171 2 -1 29 -9 61 -17 43
-12 59 -12 62 -4 2 7 20 83 40 170 l37 159 48 -7 47 -6 12 46 c7 26 11 49 9
50 -2 1 -25 7 -53 13 -27 6 -96 22 -153 35 l-102 25 -5 -22z"/>
<path d="M3855 9291 l-60 -18 -8 -232 c-5 -128 -7 -235 -4 -237 2 -3 25 0 51
7 l46 11 0 49 c0 47 1 48 38 58 94 26 95 25 119 -18 l23 -40 62 17 c35 10 63
20 63 22 0 14 -251 400 -260 399 -5 0 -37 -8 -70 -18z m69 -198 c28 -48 24
-62 -16 -63 -15 0 -18 9 -18 55 0 30 2 55 4 55 2 0 16 -21 30 -47z"/>
<path d="M5865 9185 c-86 -30 -157 -147 -157 -256 1 -114 101 -204 223 -202
117 2 218 120 219 256 0 101 -55 172 -156 203 -58 17 -78 17 -129 -1z m130
-115 c23 -26 17 -88 -18 -164 -31 -68 -63 -88 -102 -62 -35 23 -34 82 4 163
39 82 79 104 116 63z"/>
<path d="M3440 9141 c-40 -13 -234 -101 -243 -110 -11 -11 165 -411 180 -411
10 0 58 20 111 46 1 1 -13 37 -32 80 -32 72 -34 80 -19 92 27 20 35 15 96 -53
32 -36 64 -65 70 -65 7 0 40 13 75 29 l62 28 -79 72 -80 72 19 32 c34 55 18
138 -34 172 -30 20 -91 28 -126 16z m28 -123 c21 -21 13 -48 -20 -68 -44 -27
-62 -25 -76 5 -17 37 -15 43 16 59 33 19 64 20 80 4z"/>
<path d="M6223 8835 l-111 -194 54 -31 c29 -16 57 -30 61 -30 5 0 25 32 46 70
l38 70 66 -35 c44 -23 80 -35 106 -35 129 0 183 158 85 246 -26 24 -211 134
-225 134 -4 0 -58 -88 -120 -195z m227 20 c40 -20 49 -54 21 -76 -17 -14 -27
-16 -51 -8 -46 17 -55 33 -34 69 21 34 25 35 64 15z"/>
<path d="M2944 8897 l-131 -82 19 -30 c10 -16 22 -36 27 -44 6 -10 16 -8 49
13 l41 25 91 -149 c51 -83 93 -150 95 -150 11 0 104 64 101 69 -2 3 -41 66
-86 140 -45 74 -84 140 -87 147 -2 6 14 23 36 36 l40 24 -27 42 c-15 23 -29
42 -32 41 -3 0 -64 -37 -136 -82z"/>
<path d="M4523 8770 c-925 -76 -1768 -618 -2262 -1454 -206 -350 -356 -794
-402 -1193 l-12 -110 -36 -19 c-20 -10 -66 -38 -104 -63 l-67 -44 2 -371 3
-371 70 -47 c39 -26 101 -61 139 -77 l69 -29 18 -68 c10 -38 26 -96 37 -129
l18 -60 -37 -47 c-21 -27 -54 -81 -74 -120 l-37 -73 109 -195 c60 -107 133
-239 162 -292 l53 -96 50 -7 c28 -4 83 -4 123 0 l73 6 48 -63 c27 -35 83 -104
126 -154 77 -92 77 -92 56 -110 -50 -46 -78 -146 -78 -279 0 -100 3 -109 43
-134 18 -10 142 -85 277 -166 l245 -148 74 39 c41 21 100 63 132 92 l57 52
111 -55 c61 -30 115 -55 121 -55 13 0 13 -13 0 -26 -6 -6 -16 -39 -23 -74 -15
-73 -7 -160 21 -224 l19 -41 239 -43 c131 -24 293 -54 360 -67 66 -14 145 -27
175 -31 54 -6 56 -5 86 29 43 49 82 134 89 193 l6 49 158 0 158 0 6 -49 c7
-65 46 -142 93 -187 l38 -37 398 73 c320 59 401 77 412 92 21 28 45 124 45
179 -1 27 -9 73 -19 102 l-18 53 137 69 137 68 64 -62 c39 -37 93 -77 139
-100 l76 -39 97 61 c54 34 99 62 101 62 2 0 43 25 92 54 49 30 128 78 175 105
76 45 87 55 92 84 9 62 0 214 -18 266 -16 50 -65 113 -95 123 -11 3 -1 21 38
69 30 35 86 105 125 156 67 85 73 90 96 81 37 -14 180 -21 225 -11 41 9 51 25
271 428 24 44 54 98 66 120 l22 41 -44 84 c-24 47 -65 108 -92 137 l-49 52 28
107 c15 58 34 112 41 120 8 7 31 18 51 24 39 10 132 63 190 106 l32 25 0 367
0 367 -62 42 c-35 23 -81 51 -103 62 l-39 21 -23 162 c-133 927 -655 1728
-1438 2202 -206 125 -488 244 -735 310 -299 80 -640 111 -947 86z m237 -415
l0 -235 -380 0 -380 0 0 180 0 179 38 10 c238 62 453 94 665 100 l57 1 0 -235z
m883 83 c183 -63 435 -186 582 -285 l50 -33 -368 0 -367 0 0 175 c0 96 3 175
6 175 3 0 47 -14 97 -32z m-113 -723 l0 -405 -237 0 c-131 0 -302 3 -380 7
l-143 6 0 393 0 393 138 4 c75 1 246 4 380 5 l242 2 0 -405z m-1540 0 l-1
-395 -374 0 -375 0 0 395 0 395 375 0 375 0 0 -395z m2397 324 c166 -123 360
-313 505 -494 56 -71 141 -187 162 -222 6 -10 -71 -13 -368 -13 l-376 0 0 390
c0 215 2 390 5 390 2 0 35 -23 72 -51z m-1627 -1129 l0 -400 -380 0 -380 0 0
395 0 395 203 3 c111 1 282 3 380 5 l177 2 0 -400z m1540 0 l0 -400 -380 0
-380 0 0 400 0 400 380 0 380 0 0 -400z m-3080 0 l0 -390 -380 0 -380 0 0 390
0 390 380 0 380 0 0 -390z m3915 280 c49 -85 139 -268 166 -335 65 -165 98
-254 102 -280 3 -16 9 -38 12 -47 7 -17 -5 -18 -164 -18 l-171 0 0 -400 0
-400 -385 0 -385 0 0 400 0 400 385 0 385 0 0 380 c0 209 2 380 4 380 2 0 25
-36 51 -80z m-1605 -1080 l0 -400 -380 0 -380 0 0 395 0 395 198 3 c108 1 279
3 380 5 l182 2 0 -400z m-3080 -5 l0 -395 -232 2 -233 3 3 120 c1 66 7 161 12
210 11 89 60 345 80 418 l11 37 179 0 180 0 0 -395z m1540 0 l0 -395 -375 0
-375 0 0 395 0 395 375 0 375 0 0 -395z m2310 -795 l0 -400 -380 0 -380 0 0
395 0 395 378 3 c207 1 378 3 380 5 1 1 2 -178 2 -398z m-3070 -5 l0 -395
-385 0 -385 0 0 395 0 395 385 0 385 0 0 -395z m1530 0 l0 -395 -380 0 -380 0
0 395 0 395 380 0 380 0 0 -395z m2766 260 c-10 -211 -40 -418 -83 -587 l-17
-68 -173 0 -173 0 0 395 0 395 227 0 226 0 -7 -135z m-5077 -1062 c0 -378 -1
-397 -17 -373 -9 13 -32 44 -50 68 -19 25 -40 61 -47 81 -7 20 -33 77 -58 126
-65 130 -187 446 -187 484 0 7 60 11 180 11 l180 0 -1 -397z m1541 -5 l0 -401
-167 6 c-91 4 -260 7 -374 7 l-209 0 -2 395 -3 395 378 0 377 0 0 -402z m1540
2 l0 -400 -380 0 -380 0 0 400 0 400 380 0 380 0 0 -400z m1550 0 l0 -400
-385 0 -385 0 0 400 0 400 385 0 385 0 0 -400z m-780 -800 l0 -400 -380 0
-380 0 0 399 0 399 380 2 380 1 0 -401z m-3080 -5 c0 -217 -4 -395 -9 -395
-10 0 -82 54 -186 140 -123 102 -346 327 -400 403 -26 38 -54 71 -62 74 -7 3
-13 11 -13 18 0 6 -9 20 -20 30 -11 10 -20 23 -20 29 0 6 -11 28 -25 48 -14
20 -25 39 -25 42 0 4 171 6 380 6 l380 0 0 -395z m1540 0 l0 -395 -380 0 -380
0 0 395 0 395 380 0 380 0 0 -395z m758 -776 c-20 -13 -216 -58 -342 -79 -65
-11 -183 -23 -262 -27 l-144 -6 0 241 0 242 378 2 377 3 3 -184 c2 -138 -1
-186 -10 -192z m-1528 186 c0 -102 -4 -185 -8 -185 -12 0 -187 63 -262 95
-150 63 -435 219 -484 266 -6 5 147 9 372 9 l382 0 0 -185z"/>
<path d="M6642 8590 c-73 -94 -133 -174 -135 -179 -2 -9 227 -191 241 -191 9
0 62 63 62 73 0 3 -31 28 -70 58 -38 29 -70 54 -70 56 0 2 47 64 105 137 58
74 105 136 105 139 0 6 -92 77 -99 77 -3 0 -66 -77 -139 -170z"/>
<path d="M2615 8658 c-27 -22 -49 -46 -49 -52 1 -10 163 -428 168 -433 1 -1
20 13 43 30 l40 33 -18 45 -18 46 50 38 c53 40 59 40 114 1 18 -13 24 -11 71
28 l52 43 -191 129 c-105 71 -195 130 -201 131 -6 2 -33 -16 -61 -39z m151
-170 l31 -23 -24 -19 c-28 -21 -34 -17 -57 42 -15 41 -15 42 1 33 10 -5 32
-20 49 -33z"/>
<path d="M6972 8357 c-127 -129 -132 -135 -132 -176 0 -23 9 -59 19 -80 24
-46 91 -108 139 -128 64 -27 89 -14 237 125 l135 126 -37 38 -37 38 -116 -115
c-72 -70 -125 -115 -137 -115 -33 0 -73 38 -73 68 0 21 25 52 115 142 l114
114 -42 45 c-22 25 -44 47 -47 49 -3 1 -65 -58 -138 -131z"/>
<path d="M2315 8378 c-36 -19 -96 -82 -116 -120 -37 -72 -15 -159 50 -193 54
-27 101 -15 202 52 70 46 117 10 61 -47 -22 -22 -40 -30 -66 -30 -30 0 -39 -6
-66 -44 -36 -53 -37 -62 -7 -70 96 -26 198 29 256 139 53 101 -5 218 -109 218
-29 0 -58 -12 -115 -47 -41 -26 -83 -46 -92 -44 -50 10 -4 88 52 88 27 0 34 6
53 45 12 25 22 50 22 55 0 14 -100 12 -125 -2z"/>
<path d="M7284 7982 c-94 -70 -172 -131 -173 -135 -5 -13 170 -247 183 -247 6
0 26 13 44 28 l32 27 -50 70 c-27 38 -50 72 -50 75 0 4 61 51 135 106 74 54
135 102 135 107 0 13 -64 96 -75 96 -5 0 -87 -57 -181 -127z"/>
<path d="M1833 7797 l-90 -143 193 -121 193 -121 77 121 c43 67 83 132 91 144
13 20 12 23 -24 47 -21 14 -40 26 -44 26 -3 0 -30 -38 -59 -85 -29 -47 -55
-85 -58 -85 -2 0 -20 9 -38 21 l-34 20 34 53 c61 95 60 92 20 115 -20 12 -39
19 -44 16 -5 -3 -25 -32 -45 -65 -20 -33 -42 -60 -50 -60 -7 0 -23 8 -35 18
l-23 18 52 82 c28 45 51 85 51 89 0 7 -64 53 -73 53 -2 0 -44 -64 -94 -143z"/>
<path d="M7565 7684 c-144 -78 -190 -114 -201 -161 -16 -61 47 -194 111 -233
58 -36 93 -28 259 62 83 45 153 82 155 84 6 5 -43 84 -52 84 -5 0 -67 -31
-137 -70 -70 -38 -139 -70 -153 -70 -45 0 -80 58 -59 96 5 9 73 52 150 94
l140 76 -31 57 c-18 31 -34 57 -37 57 -3 0 -68 -34 -145 -76z"/>
<path d="M1672 7511 c-11 -25 -40 -90 -66 -143 l-45 -98 39 -20 c52 -27 57
-26 70 15 6 19 16 37 21 40 5 3 76 -26 159 -65 83 -38 154 -70 158 -70 5 0 20
24 34 54 l27 54 -160 73 c-87 41 -159 77 -159 82 0 4 9 25 19 46 l20 38 -49
20 -48 21 -20 -47z"/>
<path d="M8096 7235 c-52 -80 -14 -169 82 -190 36 -7 36 -7 22 29 -6 16 -17
26 -29 26 -41 0 -65 67 -37 105 10 14 11 25 5 37 -13 24 -24 23 -43 -7z"/>
<path d="M7721 7228 c-65 -25 -126 -83 -142 -136 -23 -77 10 -173 71 -211 29
-17 30 -18 11 -35 -16 -15 -18 -22 -9 -47 6 -18 16 -28 23 -25 8 3 61 22 118
42 l105 37 -30 86 c-17 47 -34 89 -37 93 -4 4 -24 2 -44 -4 -39 -12 -41 -19
-21 -72 10 -27 -51 -21 -70 6 -38 54 3 115 94 142 96 29 142 18 155 -35 5 -19
0 -34 -18 -55 l-25 -29 24 -52 c12 -29 27 -53 32 -53 17 0 70 67 82 106 27 81
-31 207 -113 245 -55 25 -137 24 -206 -3z"/>
<path d="M1508 7131 l-16 -49 59 -58 c33 -32 59 -61 59 -65 0 -4 -30 -12 -67
-19 -103 -18 -100 -16 -118 -75 -8 -30 -18 -61 -21 -68 -4 -11 30 -6 143 19
l148 33 92 -28 92 -29 20 61 c12 33 20 61 18 62 -1 1 -44 15 -95 30 l-94 29
-95 103 c-53 57 -99 103 -103 103 -3 0 -13 -22 -22 -49z"/>
<path d="M7931 6740 c-78 -16 -154 -36 -167 -45 -83 -54 -76 -238 12 -315 27
-23 44 -30 77 -30 43 0 333 53 342 62 6 5 -10 86 -17 93 -2 2 -74 -9 -161 -25
-86 -16 -163 -27 -170 -24 -33 12 -49 92 -23 113 8 7 86 26 173 42 l159 31
-11 61 c-10 59 -12 62 -40 64 -17 1 -95 -12 -174 -27z"/>
<path d="M1372 6628 c-6 -34 -10 -63 -9 -63 4 -3 422 -85 434 -85 10 0 33 79
33 114 0 9 -65 26 -207 55 -115 22 -215 41 -224 41 -11 0 -19 -17 -27 -62z"/>
<path d="M290 5881 l0 -111 70 0 70 0 0 -65 0 -65 -70 0 -70 0 0 -125 0 -125
70 0 70 0 0 -65 0 -65 -70 0 -70 0 0 -111 c0 -100 2 -110 18 -105 9 2 53 8 97
12 l80 7 78 75 77 75 0 301 0 301 -77 77 c-74 73 -81 77 -133 83 -30 3 -74 8
-97 11 l-43 5 0 -110z"/>
<path d="M9106 5980 l-78 -8 -79 -78 -79 -79 0 -300 0 -300 78 -77 77 -76 70
-6 c39 -4 83 -9 98 -12 l28 -6 -3 114 -3 113 -67 -2 -68 -1 0 64 0 64 70 0 70
0 0 125 0 125 -70 0 -70 0 0 65 0 65 70 0 70 0 0 110 c0 99 -2 110 -17 109
-10 -1 -53 -5 -97 -9z"/>
<path d="M1532 5877 c-22 -23 -22 -28 -22 -364 0 -317 1 -341 18 -356 21 -19
45 -21 73 -7 18 10 19 25 19 364 0 329 -1 354 -18 369 -25 23 -45 21 -70 -6z"/>
<path d="M7912 5884 l-22 -15 0 -354 c0 -340 1 -355 19 -365 29 -15 56 -12 74
8 15 17 17 56 17 359 l0 340 -23 21 c-28 26 -36 27 -65 6z"/>
<path d="M677 5814 c-4 -4 -7 -139 -7 -300 0 -284 1 -293 20 -299 30 -9 55 2
68 31 17 37 16 510 -1 544 -12 25 -64 40 -80 24z"/>
<path d="M8756 5791 c-13 -25 -16 -73 -16 -275 0 -164 4 -253 12 -270 13 -29
38 -40 68 -31 20 6 20 13 18 303 l-3 297 -32 3 c-27 3 -34 -2 -47 -27z"/>
<path d="M1175 5784 c-154 -13 -304 -26 -332 -29 l-53 -6 0 -234 0 -233 78 -6
c42 -4 184 -16 315 -26 132 -11 252 -20 268 -20 l29 0 0 290 c0 226 -3 290
-12 289 -7 -1 -139 -12 -293 -25z"/>
<path d="M8030 5520 l0 -290 28 0 c16 0 136 9 268 20 131 11 274 22 317 26
l77 6 0 233 0 233 -47 6 c-27 3 -84 8 -128 11 -172 12 -204 15 -325 25 -69 5
-140 13 -157 16 l-33 5 0 -291z"/>
<path d="M1776 4448 c-9 -12 -16 -30 -16 -40 0 -10 64 -133 142 -274 149 -270
165 -290 212 -264 13 7 26 21 29 30 4 17 -61 143 -238 455 -51 90 -67 111 -88
113 -17 2 -30 -4 -41 -20z"/>
<path d="M7659 4358 c-34 -62 -73 -133 -87 -158 -111 -200 -152 -279 -152
-292 0 -8 9 -23 20 -33 25 -23 63 -13 88 23 41 60 272 491 272 509 0 30 -29
63 -55 63 -19 0 -34 -19 -86 -112z"/>
<path d="M1560 4365 c-243 -41 -530 -176 -668 -314 -169 -169 -224 -395 -148
-613 19 -55 24 -83 18 -95 -10 -19 -15 -57 -13 -108 l1 -29 40 39 c22 21 43
36 46 32 4 -3 7 -23 8 -45 2 -40 34 -113 53 -119 5 -2 16 17 23 42 7 25 16 47
20 50 14 8 207 -16 280 -36 40 -11 104 -33 141 -50 75 -32 125 -37 169 -14 25
13 50 42 50 59 0 2 -17 15 -37 28 -20 13 -41 26 -46 29 -5 4 -6 12 -3 18 5 7
22 1 52 -19 l44 -31 10 26 c26 67 11 87 -100 139 -80 37 -107 66 -130 141 -21
66 -39 94 -71 111 -26 13 -39 14 -81 4 -118 -29 -37 43 87 76 84 23 257 18
368 -10 52 -13 108 -31 123 -39 l29 -15 95 120 c52 66 96 124 98 129 2 5 -59
121 -135 259 l-138 250 -55 -1 c-30 -1 -89 -7 -130 -14z"/>
<path d="M7782 4313 c-22 -38 -57 -99 -77 -138 -21 -38 -67 -121 -102 -183
-35 -63 -60 -119 -56 -125 17 -30 186 -237 192 -237 5 0 34 9 67 20 158 55
370 68 487 29 109 -35 162 -98 61 -71 -81 22 -130 -14 -161 -118 -19 -68 -71
-121 -141 -144 -28 -10 -62 -28 -77 -42 -22 -20 -25 -30 -20 -57 13 -58 18
-60 63 -27 47 34 52 35 52 18 0 -7 -20 -26 -45 -43 -24 -16 -45 -33 -45 -36 0
-4 16 -21 35 -38 46 -40 98 -41 175 -5 83 38 210 72 297 79 43 4 91 11 106 15
26 9 29 7 43 -25 8 -19 14 -44 14 -56 0 -12 5 -19 13 -17 20 7 57 90 57 130 0
21 3 38 8 38 4 0 24 -14 44 -30 l37 -31 7 26 c3 14 -1 47 -10 74 -15 47 -15
52 3 95 39 90 52 232 30 338 -6 29 -29 91 -52 138 -67 137 -189 246 -382 342
-169 84 -404 148 -544 148 -39 0 -41 -2 -79 -67z"/>
<path d="M2539 3149 c-24 -24 -20 -63 9 -90 36 -35 491 -299 514 -299 32 0 61
32 56 61 -2 18 -59 57 -273 186 -148 90 -273 163 -277 163 -5 0 -17 -9 -29
-21z"/>
<path d="M6755 3035 c-314 -190 -315 -191 -315 -219 0 -33 25 -56 58 -55 16 0
129 63 277 152 241 146 250 153 253 185 3 34 -20 73 -42 71 -6 -1 -110 -61
-231 -134z"/>
<path d="M2567 3013 c-2 -5 -8 -30 -11 -56 -10 -67 -71 -254 -112 -345 -19
-41 -33 -79 -32 -84 2 -4 59 -41 128 -82 100 -60 127 -73 135 -62 6 8 39 55
74 105 35 50 103 133 152 183 48 51 85 96 81 99 -4 3 -92 57 -197 120 -104 63
-195 117 -201 122 -7 4 -15 4 -17 0z"/>
<path d="M6785 2898 c-110 -66 -204 -124 -209 -128 -5 -5 25 -43 68 -87 64
-65 126 -141 238 -295 12 -16 24 -10 141 60 70 42 125 82 122 87 -40 86 -103
261 -126 353 -16 64 -30 120 -32 124 -1 3 -92 -48 -202 -114z"/>
<path d="M2220 2543 c0 -3 23 -30 51 -60 28 -29 49 -57 47 -61 -2 -4 -19 -38
-38 -76 -19 -38 -30 -71 -25 -73 6 -2 73 -41 150 -88 l140 -84 38 70 c21 38
42 69 47 69 5 0 32 -5 59 -11 88 -19 93 -11 31 55 -71 75 -305 217 -405 246
-74 21 -95 24 -95 13z"/>
<path d="M7235 2527 c-99 -31 -324 -169 -399 -246 -33 -33 -57 -63 -54 -66 3
-3 34 1 69 10 35 8 69 15 74 15 6 0 28 -31 48 -70 l38 -69 72 43 c145 86 227
138 227 142 0 3 -17 35 -38 72 l-39 68 49 54 c70 80 67 82 -47 47z"/>
<path d="M5760 2529 c-19 -5 -172 -33 -340 -64 -168 -30 -317 -58 -332 -61
-56 -11 -25 -94 35 -94 53 0 693 122 715 136 29 19 36 37 28 69 -5 21 -12 25
-39 24 -17 -1 -48 -5 -67 -10z"/>
<path d="M3657 2523 c-15 -15 -6 -53 17 -68 13 -9 99 -29 192 -46 93 -17 249
-46 348 -64 194 -36 219 -35 230 10 4 15 5 29 3 31 -5 5 -73 18 -460 89 -313
58 -320 59 -330 48z"/>
<path d="M3709 2388 c5 -13 19 -73 32 -133 21 -97 24 -136 24 -325 0 -118 -4
-233 -8 -256 l-7 -40 143 -27 c78 -15 149 -27 157 -27 11 0 22 27 39 93 58
226 130 399 226 541 31 46 43 71 35 76 -6 4 -44 13 -83 19 -40 7 -164 30 -277
51 -316 58 -292 56 -281 28z"/>
<path d="M5715 2390 c-22 -5 -155 -30 -295 -55 -140 -26 -256 -49 -258 -50 -2
-2 28 -55 66 -118 38 -64 83 -149 100 -189 28 -67 85 -248 112 -355 6 -24 16
-43 23 -43 7 1 75 13 152 28 l140 27 -5 80 c-3 44 -5 161 -4 260 1 157 4 195
27 295 15 63 27 118 27 122 0 10 -31 9 -85 -2z"/>
<path d="M2192 2263 c-22 -9 -34 -41 -22 -63 9 -17 5 -22 -28 -39 -51 -26
-105 -88 -127 -145 -16 -41 -17 -69 -12 -224 3 -98 7 -184 9 -192 2 -7 -8 -16
-22 -19 -32 -9 -64 -63 -56 -96 16 -65 86 -86 133 -39 21 21 25 32 20 64 -5
37 -4 38 45 61 27 13 53 30 57 39 5 8 11 65 15 125 4 61 9 134 13 163 5 49 7
52 34 52 l29 0 -6 -67 c-19 -223 -20 -243 -9 -243 6 0 46 24 90 53 68 45 84
62 109 110 23 45 29 71 30 122 1 54 4 65 18 65 23 0 50 42 42 64 -5 14 -300
199 -335 210 -8 2 -20 2 -27 -1z"/>
<path d="M7180 2174 c-175 -105 -191 -121 -166 -159 9 -14 24 -25 34 -25 14 0
17 -10 17 -68 1 -100 37 -160 140 -229 43 -29 83 -53 88 -53 6 0 7 28 4 73 -4
39 -10 109 -13 155 l-7 82 30 0 c30 0 30 -1 36 -62 4 -35 9 -113 13 -174 l7
-112 58 -27 c32 -16 55 -33 52 -38 -13 -21 -3 -70 18 -93 49 -52 131 -14 131
60 0 45 -7 55 -49 73 -29 11 -34 18 -29 36 3 12 9 92 12 177 6 127 4 165 -9
210 -19 65 -72 132 -126 160 -34 17 -37 22 -33 51 5 32 -16 60 -42 58 -6 0
-81 -43 -166 -95z"/>
<path d="M3670 1595 c-36 -8 -80 -14 -97 -14 -18 -1 -33 -5 -33 -11 0 -5 36
-30 79 -56 l79 -46 -5 -36 c-4 -21 -14 -61 -24 -89 -10 -29 -16 -53 -13 -53 3
0 37 -7 77 -15 40 -8 115 -21 167 -30 52 -8 107 -18 121 -21 l27 -5 3 86 c3
59 8 88 18 94 8 5 42 12 75 16 66 7 92 17 83 32 -3 5 -42 31 -85 56 -74 44
-91 49 -243 77 -90 17 -163 30 -164 29 0 -1 -29 -7 -65 -14z"/>
<path d="M5594 1581 c-129 -25 -149 -32 -225 -77 -45 -27 -84 -54 -86 -61 -3
-7 22 -16 67 -24 80 -14 82 -17 94 -104 12 -84 0 -82 217 -43 l194 34 -1 30
c0 16 -4 55 -8 86 l-8 57 66 42 c69 43 81 59 43 59 -12 0 -54 7 -92 15 -87 18
-90 18 -261 -14z"/>
<path d="M5800 1279 c-19 -4 -100 -20 -180 -34 -178 -31 -177 -31 -186 -57 -5
-16 0 -27 16 -40 l22 -18 -60 -148 c-33 -81 -63 -161 -66 -179 -11 -49 10
-107 51 -143 36 -32 38 -33 114 -27 l77 5 5 -28 c4 -15 13 -30 21 -33 19 -8
296 42 314 56 6 5 12 24 12 42 0 32 2 33 58 44 98 19 146 89 128 186 -7 36
-76 125 -189 242 -48 50 -50 53 -37 82 22 55 -12 72 -100 50z"/>
<path d="M3602 1258 c-15 -15 -16 -40 -2 -54 22 -22 -91 -150 -177 -201 -24
-14 -43 -29 -43 -33 0 -5 12 -40 26 -78 l25 -69 73 1 c63 1 78 -2 113 -26 36
-24 45 -26 78 -17 49 14 109 3 145 -27 26 -23 32 -24 73 -14 51 13 110 2 150
-30 14 -11 27 -20 29 -20 2 0 28 31 57 70 l53 70 -37 41 c-41 46 -89 143 -100
202 -6 29 -3 42 10 57 16 18 16 22 3 42 -13 19 -42 27 -214 60 -219 41 -244
44 -262 26z"/>
<path d="M3673 720 c-111 -67 -63 -250 66 -250 68 0 131 64 131 135 0 103
-111 168 -197 115z"/>
<path d="M5782 560 c-45 -10 -85 -20 -88 -23 -3 -3 6 -28 20 -56 14 -28 26
-53 26 -56 0 -4 -29 -4 -64 0 l-63 7 17 -91 c9 -50 19 -93 22 -96 2 -3 31 9
62 26 l58 32 -6 -44 c-4 -24 -10 -57 -13 -73 -5 -27 -3 -28 18 -22 13 3 57 11
97 17 39 6 72 14 72 18 0 3 -11 24 -23 46 -45 79 -45 77 29 70 l66 -8 -5 29
c-3 16 -9 52 -12 79 -11 92 -9 90 -72 55 -30 -17 -58 -29 -61 -26 -3 3 -1 32
5 64 6 31 8 60 5 63 -4 3 -44 -2 -90 -11z"/>
</g>
</svg>
